<?xml version="1.0" standalone="no"?><!DOCTYPE svg PUBLIC "-//W3C//DTD SVG 1.1//EN" "http://www.w3.org/Graphics/SVG/1.1/DTD/svg11.dtd"><svg t="1534750265324" class="icon" style="" viewBox="0 0 1024 1024" version="1.1" xmlns="http://www.w3.org/2000/svg" p-id="782" xmlns:xlink="http://www.w3.org/1999/xlink" width="200" height="200"><defs><style type="text/css"></style></defs><path d="M896 213.333333H128a42.666667 42.666667 0 0 0-42.666667 42.666667v170.666667a42.666667 42.666667 0 0 0 42.666667 42.666666c35.285333 0 64 28.714667 64 64S163.285333 597.333333 128 597.333333a42.666667 42.666667 0 0 0-42.666667 42.666667v128a42.666667 42.666667 0 0 0 42.666667 42.666667h768a42.666667 42.666667 0 0 0 42.666667-42.666667v-128a42.666667 42.666667 0 0 0-42.666667-42.666667c-35.285333 0-64-28.714667-64-64S860.714667 469.333333 896 469.333333a42.666667 42.666667 0 0 0 42.666667-42.666666V256a42.666667 42.666667 0 0 0-42.666667-42.666667z m-42.666667 176.896c-61.610667 18.432-106.666667 75.562667-106.666666 143.104s45.056 124.714667 106.666666 143.104V725.333333h-384v-85.333333H384v85.333333H170.666667v-48.896c61.610667-18.432 106.666667-75.562667 106.666666-143.104S232.277333 408.618667 170.666667 390.229333V298.666667h213.333333v85.333333h85.333333V298.666667h384v91.562666z" fill="" p-id="783"></path><path d="M384 469.333333h85.333333v85.333334H384z" fill="" p-id="784"></path></svg>