<?xml version="1.0" standalone="no"?><!DOCTYPE svg PUBLIC "-//W3C//DTD SVG 1.1//EN" "http://www.w3.org/Graphics/SVG/1.1/DTD/svg11.dtd"><svg t="1551923566776" class="icon" style="" viewBox="0 0 1024 1024" version="1.1" xmlns="http://www.w3.org/2000/svg" p-id="591" xmlns:xlink="http://www.w3.org/1999/xlink" width="200" height="200"><defs><style type="text/css"></style></defs><path d="M976 928h-416a48.128 48.128 0 0 0-48 48c0 26.368 21.568 48 48 48h416c26.368 0 48-21.568 48-48a48.128 48.128 0 0 0-48-48zM977.28 736H558.72a46.784 46.784 0 0 0-46.72 46.72v2.56c0 25.728 20.992 46.72 46.72 46.72h418.56c25.728 0 46.72-20.992 46.72-46.72v-2.56a46.784 46.784 0 0 0-46.72-46.72zM977.28 544H558.72a46.784 46.784 0 0 0-46.72 46.72v2.56c0 25.728 20.992 46.72 46.72 46.72h418.56c25.728 0 46.72-20.992 46.72-46.72v-2.56a46.784 46.784 0 0 0-46.72-46.72zM414.976 589.44h-121.6c-112.512 6.08-133.184 28.288-194.56 93.056-65.28 66.944-117.184 151.68-92.608 256.832C33.536 1008.064 107.328 1024 177.28 1024h237.76a32 32 0 1 0 0-64H177.28c-83.968 0-103.424-26.688-109.76-40.128-13.056-64 11.52-125.376 78.464-194.112 56.576-59.648 64.192-67.648 149.12-72.32h119.936a32 32 0 1 0 0-64zM442.816 523.648a261.824 261.824 0 1 0 0-523.648 261.824 261.824 0 0 0 0 523.648z m0-459.648a198.016 198.016 0 0 1 197.76 197.824 198.016 198.016 0 0 1-197.76 197.824 198.08 198.08 0 0 1-197.888-197.824A198.016 198.016 0 0 1 442.88 64z" fill="" p-id="592"></path></svg>