<?xml version="1.0" standalone="no"?><!DOCTYPE svg PUBLIC "-//W3C//DTD SVG 1.1//EN" "http://www.w3.org/Graphics/SVG/1.1/DTD/svg11.dtd"><svg t="1542178785353" class="icon" style="" viewBox="0 0 1024 1024" version="1.1" xmlns="http://www.w3.org/2000/svg" p-id="1613" xmlns:xlink="http://www.w3.org/1999/xlink" width="200" height="200"><defs><style type="text/css"></style></defs><path d="M829.5 101.6c-22.8-13-50-12.7-72.6 0.8L335.3 354c-5.7 3.4-12.2 5.2-18.8 5.2h-86.3c-39.8 0-72.2 32.4-72.2 72.2v161.3c0 39.8 32.4 72.2 72.2 72.2h86.3c6.6 0 13.1 1.8 18.8 5.2l421.5 251.6c11.5 6.8 24.3 10.3 37 10.3 12.2 0 24.5-3.1 35.7-9.4 22.8-13 36.5-36.5 36.5-62.8V164.4c0-26.3-13.6-49.8-36.5-62.8z m-49.7 63.7c0 5.4-2.8 10.4-7.4 13.1-37.7 22.5-184.5 110.4-247.3 147.9-10.3 6.1-23.3-1.3-23.3-13.3v-6.6c0-3.5 1.8-6.8 4.9-8.6l258-154.4c6.7-4 15.1 0.8 15.1 8.6v13.3z" p-id="1614"></path></svg>